<svg xmlns="http://www.w3.org/2000/svg" viewBox="0 0 87.66 117.79"><defs><style>.cls-1{fill:#e64c3c;}.cls-1,.cls-2,.cls-3{fill-rule:evenodd;}.cls-2{fill:none;}.cls-3{fill:#edf0f1;}</style></defs><title>white_red_logo</title><g id="Layer_2" data-name="Layer 2"><g id="Layer_2-2" data-name="Layer 2"><path class="cls-1" d="M76.43,46C79,33.66,74.87,33.16,63.48,34.26c-12.37,1.2-17.16,2.41-12.36,13.17,2.77,6.21,6.2,8.37,14,8.13,8.16-.39,9.77-1.89,11.35-9.52ZM56.83,31.84A105.12,105.12,0,0,1,79.91,31c1.24.07,3.37.11,4.19,1.24a3.44,3.44,0,0,1,.38,2.41c-.13,1.23-.4,2.49-.61,3.71l-.09.52-.51.08a2.78,2.78,0,0,0-1.24.46c-1.14.85-1.56,3.65-1.79,5a44.37,44.37,0,0,1-1.76,7.36,11,11,0,0,1-2.91,4.64c-2.49,2.21-6.17,2.6-9.33,2.72-4.22.16-8.83,0-12.37-2.69a20.48,20.48,0,0,1-4.77-5.62,33.79,33.79,0,0,1-2.56-5.33c-.39-.94-1-2.44-1.88-3a2.07,2.07,0,0,0-1.18-.29h0a2.08,2.08,0,0,0-1.18.29c-.88.55-1.49,2.06-1.88,3a33.82,33.82,0,0,1-2.56,5.33A20.49,20.49,0,0,1,33,56.37C29.5,59,24.89,59.23,20.67,59.06c-3.16-.12-6.84-.51-9.33-2.72A11.06,11.06,0,0,1,8.44,51.7a44.39,44.39,0,0,1-1.76-7.36c-.23-1.31-.65-4.11-1.79-5a2.78,2.78,0,0,0-1.24-.46l-.51-.08L3,38.33c-.21-1.22-.48-2.49-.61-3.71a3.44,3.44,0,0,1,.38-2.41C3.63,31.08,5.76,31,7,31a105.12,105.12,0,0,1,23.09.87,48.69,48.69,0,0,1,4.81,1.09,47.28,47.28,0,0,0,8.56,1.88A47.28,47.28,0,0,0,52,32.93a48.69,48.69,0,0,1,4.8-1.09Zm-21,15.6c4.8-10.76,0-12-12.36-13.17C12,33.16,7.93,33.66,10.49,46c1.58,7.63,3.19,9.13,11.35,9.52,7.76.23,11.19-1.93,14-8.13ZM7.47,36.28c1.2,0,2.17-.52,2.17-1.16s-1-1.16-2.17-1.16-2.17.52-2.17,1.16,1,1.16,2.17,1.16Zm72,0c-1.2,0-2.17-.52-2.17-1.16s1-1.16,2.17-1.16,2.17.52,2.17,1.16S80.64,36.28,79.45,36.28Z"/><path class="cls-2" d="M31.23,29.39a51,51,0,0,1,5.05,1.15,46.45,46.45,0,0,0,7.92,1.79,46.43,46.43,0,0,0,7.92-1.79,51,51,0,0,1,5.05-1.15,92.92,92.92,0,0,1,13-1.13c-1.35-2.16-3.74-3.46-7.82-3.32L65.62,23a22.54,22.54,0,0,0-12,3.43l1.32-2a18.8,18.8,0,0,0-8.11,5.41,3.81,3.81,0,0,1,.47-2.06,10.93,10.93,0,0,0-3.32,3,10.7,10.7,0,0,0-3.23-3,3.81,3.81,0,0,1,.47,2.06,18.81,18.81,0,0,0-8.11-5.41l1.32,2a22.54,22.54,0,0,0-12-3.43l3.32,1.94c-4.08-.14-6.46,1.16-7.82,3.31A93.4,93.4,0,0,1,31.23,29.39Z"/><path class="cls-3" d="M22.35,23a22.54,22.54,0,0,1,12,3.43l-1.32-2a18.81,18.81,0,0,1,8.11,5.41,3.81,3.81,0,0,0-.47-2.06,10.7,10.7,0,0,1,3.23,3,10.93,10.93,0,0,1,3.32-3,3.81,3.81,0,0,0-.47,2.06A18.8,18.8,0,0,1,54.9,24.4l-1.32,2a22.54,22.54,0,0,1,12-3.43L62.3,24.94c4.08-.14,6.47,1.16,7.82,3.32q1.44,0,2.89,0C71.14,23,68,17.87,63.58,14.94A22.14,22.14,0,0,1,72,17.39c-.79-2.94-4.28-7.13-11.15-9.42a11.66,11.66,0,0,1,4.37-1.7c-1.87-1.2-6.51-1.62-11.31-1.2C54.6,4,55.9,3,59,1.6,50.31.67,46.21,2,40,4.59A13.4,13.4,0,0,1,44.87,0c-5.34.62-11,3.36-16.21,7L30.45.54A42.1,42.1,0,0,0,13.71,28.26q2.07,0,4.14,0c1.36-2.15,3.74-3.46,7.82-3.31L22.35,23ZM51.9,9.17A33.8,33.8,0,0,0,36,14.29a12.44,12.44,0,0,1,3.45-4.73c-5.19,1.92-9.42,5.45-13.3,9.6,0-1-.1-2.16-.1-3.11-2.93,1.19-8,6.48-8.69,9.07,2.1-8.25,5.59-13.54,9.67-18.76a21.16,21.16,0,0,0-1.53,7.39A54.2,54.2,0,0,1,39.39,3.46c-2.17,2.13-4.06,4.27-5.91,6.4a57,57,0,0,1,21.18-6.7,59.6,59.6,0,0,0-7.49,4.53,53.3,53.3,0,0,1,12.9-.79,26.9,26.9,0,0,0-3.94,1.77,28.69,28.69,0,0,1,13.1,6.5c-4-1.65-8.32-2.54-12.36-1.82a6.73,6.73,0,0,1,3.55-1.82,34.24,34.24,0,0,0-11.57-.25C49.73,10.63,51,9.83,51.9,9.17Z"/><path class="cls-2" d="M27.08,6.36C23,11.58,19.51,16.87,17.41,25.12c.66-2.58,5.76-7.88,8.69-9.07,0,1,.1,2.16.1,3.11,3.88-4.15,8.11-7.68,13.3-9.6A12.44,12.44,0,0,0,36,14.29,33.8,33.8,0,0,1,51.9,9.17c-.89.66-2.17,1.46-3.05,2.12a34.24,34.24,0,0,1,11.57.25,6.73,6.73,0,0,0-3.55,1.82c4-.71,8.32.17,12.36,1.82a28.69,28.69,0,0,0-13.1-6.5A26.9,26.9,0,0,1,60.08,6.9a53.3,53.3,0,0,0-12.9.79,59.6,59.6,0,0,1,7.49-4.53,57,57,0,0,0-21.18,6.7c1.85-2.13,3.74-4.27,5.91-6.4A54.2,54.2,0,0,0,25.56,13.75,21.16,21.16,0,0,1,27.08,6.36Z"/><path class="cls-2" d="M80.11,66.23a13.65,13.65,0,0,1,2.23,9.69,12,12,0,0,0-1.31-3,14.85,14.85,0,0,1-.25,8.26,9.58,9.58,0,0,0-1.45-3.54A14.94,14.94,0,0,1,78,85.27,11.58,11.58,0,0,0,77,81.21a14.7,14.7,0,0,1-3.26,8.45,13.94,13.94,0,0,0-.13-4.31c-1,5.14-3.23,8.16-6.06,10a19.79,19.79,0,0,0,2.76-6.68l.07,2.59A26.87,26.87,0,0,0,71.92,81.1l1,2.56a18.37,18.37,0,0,0-.62-8.42,6.18,6.18,0,0,1,1.78,3,12.91,12.91,0,0,0-2.12-7.42,9.51,9.51,0,0,1,2.78,2.92,16.19,16.19,0,0,0-2.16-6.86,10,10,0,0,1,2.89,2.49,19.85,19.85,0,0,0-2.94-5.06A9,9,0,0,1,76,67.15,10.63,10.63,0,0,0,72.54,62a12.47,12.47,0,0,1,4.58,1.8,7.5,7.5,0,0,0-3.47-3.45,9,9,0,0,0,5.28-4,11.81,11.81,0,0,0,1,7.86,7,7,0,0,1,.25-3.06c.56,4.93,2,4.15,2.1,7.27A6,6,0,0,0,80.11,66.23Z"/><path class="cls-2" d="M14.74,66.71a16.27,16.27,0,0,0-2.17,6.89,9.57,9.57,0,0,1,2.79-2.93,13,13,0,0,0-2.13,7.45,6.22,6.22,0,0,1,1.79-3,18.46,18.46,0,0,0-.63,8.45l1-2.57A27,27,0,0,0,17,91.25l.07-2.6a19.89,19.89,0,0,0,2.77,6.71c-2.83-1.86-5-4.89-6.09-10.06a14,14,0,0,0-.13,4.33,14.77,14.77,0,0,1-3.28-8.49,11.64,11.64,0,0,0-1.05,4.08,15,15,0,0,1-1.3-7.7,9.63,9.63,0,0,0-1.46,3.55,14.91,14.91,0,0,1-.25-8.3,12.07,12.07,0,0,0-1.32,3,13.71,13.71,0,0,1,2.24-9.74A6,6,0,0,0,4.94,68.2c.13-3.14,1.55-2.35,2.1-7.3A7,7,0,0,1,7.29,64a11.43,11.43,0,0,0,1.16-7.08,10.44,10.44,0,0,0,4.84,3.43,7.44,7.44,0,0,0-3.15,3.28,12.54,12.54,0,0,1,4.6-1.81A10.68,10.68,0,0,0,11.29,67a9,9,0,0,1,3.51-2.89,19.94,19.94,0,0,0-3,5.09A10.07,10.07,0,0,1,14.74,66.71Z"/><path class="cls-3" d="M51.55,87.7c-3.53-1.75-6.78-2.65-8.16.68-.33-3.59-3.7-3.69-7.59-3.07A9.83,9.83,0,0,1,44,84.18,10,10,0,0,1,51.55,87.7Z"/><path class="cls-2" d="M50.28,52.52a8.71,8.71,0,0,0-4.78.89c-1.22.55-2.26,1.21-3.55,1.68-1.29-.47-2.34-1.13-3.56-1.68a11.67,11.67,0,0,0-1.9-.68c.47-.64.9-1.31,1.33-2a33.81,33.81,0,0,0,2.56-5.34c.39-.94,1-2.44,1.88-3a2.08,2.08,0,0,1,1.18-.29h0a2.07,2.07,0,0,1,1.18.29c.88.55,1.49,2.06,1.88,3a33.78,33.78,0,0,0,2.56,5.34C49.48,51.35,49.87,51.94,50.28,52.52Z"/><path class="cls-2" d="M41.95,55.09c1.29-.47,2.33-1.13,3.55-1.68C49.73,51.5,52.43,52.72,55,55c3.61,3.13,5,5.57.11,9.8,3,2.74,4,5.1,4.06,7.3-.36-.16-1.09-.55-1.45-.71,2.64,3.59,5.56,9.74,4.78,13C55.87,78.53,39,76.12,30,75.86c-4.43-.13-6.94,1.34-3.83-4.61-.36.16-1.09.66-1.45.82.1-2.2,1.07-4.56,4.06-7.3-4.94-4.23-3.5-6.68.11-9.8,2.59-2.24,5.29-3.46,9.52-1.55,1.22.55,2.26,1.21,3.56,1.68Zm0,16.3c0-2.36.31-5.19.45-7.6.3-5.08,2.23-5.19,7.81-3.29,7.45,2.55,2.9-10.07-8.25-1.05h0c-11.15-9-15.71,3.6-8.25,1.05,5.58-1.91,7.51-1.79,7.81,3.29Z"/><path class="cls-3" d="M41.95,59.45c11.15-9,15.7,3.6,8.25,1.05-5.58-1.91-7.51-1.79-7.81,3.29-.14,2.41-.45,5.24-.45,7.6l-.45-7.6c-.3-5.08-2.23-5.19-7.81-3.29-3.6,1.23-4.4-1.07-3-2.77a4.37,4.37,0,0,1,2.46-1.44c2.05-.46,5.05.13,8.8,3.16h0Z"/><path class="cls-3" d="M78.79,89.08c-1.56,6.71-8.2,15.66-14.18,19.54.21-1.07.34-2.23.5-3a37.93,37.93,0,0,1-10.08,8,9.91,9.91,0,0,0,1-3.69c-4.28,1.38-9.5,4.4-12.4,7.79a32.71,32.71,0,0,0-12-7.64c.27,1.16.43,2.78.56,3.95a39,39,0,0,1-9.12-8.1c-.17.72-.29,1.95-.46,2.67C16.55,103.91,7.09,93,5.35,82.19L4.1,86c-2.27-4.09-2.19-11.1-1-17.92-.69.84-1.38,1.73-2.1,2.45-.27-4.26,1.8-9.92,5-15.78a7.69,7.69,0,0,1-2.65,1.45c.76-1.84,0-3.75,1.67-5.19C2.61,47-.86,42.56.19,38.25q.08-.41.18-.8L.6,38.74,1,41l2.26.36.12,0a14.49,14.49,0,0,1,.86,3.38,46.07,46.07,0,0,0,1.88,7.77,14.92,14.92,0,0,0,2.35,4.34A11.43,11.43,0,0,1,7.29,64,7,7,0,0,0,7,60.9c-.56,5-2,4.17-2.1,7.3a6,6,0,0,1,2.22-2.11,13.71,13.71,0,0,0-2.24,9.74,12.05,12.05,0,0,1,1.32-3,14.91,14.91,0,0,0,.25,8.3,9.63,9.63,0,0,1,1.46-3.55,15,15,0,0,0,1.3,7.7,11.64,11.64,0,0,1,1.05-4.08,14.77,14.77,0,0,0,3.28,8.49,14,14,0,0,1,.13-4.33A20.31,20.31,0,0,0,15.24,90a12.7,12.7,0,0,0,4.56,5.32,22.48,22.48,0,0,1-2.43-5.24A13.63,13.63,0,0,1,17,88.65l0,1.46,0,1.14q-.2-.58-.37-1.16A26.24,26.24,0,0,1,15.39,81l-1,2.57A18.46,18.46,0,0,1,15,75.15a6.22,6.22,0,0,0-1.79,3,13,13,0,0,1,2.13-7.45,9.58,9.58,0,0,0-2.79,2.93,16.27,16.27,0,0,1,2.17-6.89,10.06,10.06,0,0,0-2.9,2.5,19.94,19.94,0,0,1,3-5.09A9,9,0,0,0,11.29,67a10.68,10.68,0,0,1,3.46-5.22,12.53,12.53,0,0,0-4.6,1.81,7.44,7.44,0,0,1,3.15-3.28,23.35,23.35,0,0,0,7.27,1.21,38.3,38.3,0,0,0,5.37-.12,10.38,10.38,0,0,0,2.81,3.34c-3,2.74-4,5.1-4.06,7.3.36-.16,1.09-.66,1.45-.82-3.12,6-.6,4.5,3.83,4.39,9-.23,25.89,2.77,32.54,8.69.77-3.24-2.14-9.39-4.78-13,.36.16,1.09.55,1.45.71-.1-2.2-1.07-4.56-4.06-7.3a9.23,9.23,0,0,0,3-3.81,30.83,30.83,0,0,0,8.22.58,23.28,23.28,0,0,0,7.31-1.23,7.5,7.5,0,0,1,3.47,3.45A12.46,12.46,0,0,0,72.54,62,10.63,10.63,0,0,1,76,67.15a9,9,0,0,0-3.49-2.87,19.83,19.83,0,0,1,2.94,5.06,10,10,0,0,0-2.89-2.49,16.2,16.2,0,0,1,2.16,6.86,9.52,9.52,0,0,0-2.78-2.92,12.91,12.91,0,0,1,2.12,7.42,6.18,6.18,0,0,0-1.78-3,18.37,18.37,0,0,1,.62,8.41l-1-2.56a26.87,26.87,0,0,1-1.56,10.17l-.06-2.59a17.49,17.49,0,0,1-1.84,5.07q-.42.8-.91,1.61a12.24,12.24,0,0,0,1.95-1.58,15.94,15.94,0,0,0,4.11-8.43,14,14,0,0,1,.13,4.31A14.7,14.7,0,0,0,77,81.21a11.59,11.59,0,0,1,1,4.06,14.93,14.93,0,0,0,1.29-7.66,9.58,9.58,0,0,1,1.45,3.54A14.85,14.85,0,0,0,81,72.88a12,12,0,0,1,1.31,3,13.65,13.65,0,0,0-2.23-9.69,6,6,0,0,1,2.21,2.1c-.13-3.12-1.54-2.34-2.09-7.27A7,7,0,0,0,80,64.12a11.81,11.81,0,0,1-1-7.86,15.74,15.74,0,0,0,1.88-3.72,46.11,46.11,0,0,0,1.88-7.77,14.44,14.44,0,0,1,.86-3.38l.12,0L85.93,41l.39-2.27.13-.74A11.53,11.53,0,0,1,87,40.56c.36,4.45-3.2,7.91-4.87,10.82,2.2,4.08,5.12,10.16,5.56,13.83A21.33,21.33,0,0,1,83.86,61c2.91,6.24,3.47,12.49,1.32,18.2-.48-1.45-.92-3.15-1.4-4.59.11,8.57-1,15.47-5.29,19.12a14,14,0,0,0,.3-4.69Zm-29,18.73c7.26-3.26,12.84-8.9,13-15.38,0-.23,0-.46,0-.7l-4.19-1.09,4.12-.47c-1.94-8-18.65-10.62-26-11.65s-14.28,0-13.82,10.85q0,.15,0,.3c1.26,0,2.52,0,4.12.1l-4.19,1c-.26,6.77,7.65,12.75,15.16,16.13-.54-1.06-1.42-2.25-2-3.31a32,32,0,0,0,7.87,5.27c2.84-1.39,5.5-2.2,7.87-4.41C51.2,105.55,50.32,106.75,49.78,107.81Z"/><path class="cls-2" d="M38,106.94c-7.52-3.38-15.42-9.37-15.16-16.13l4.19-1c-1.6-.09-2.86-.15-4.12-.1v-.3c-.46-10.81,6.46-11.88,13.82-10.85s24.07,3.62,26,11.65l-4.12.47,4.19,1.09c0,.23,0,.46,0,.69-.14,6.48-5.72,12.12-13,15.38.54-1.06,1.42-2.25,2-3.31-2.37,2.2-5,3-7.87,4.41A32.06,32.06,0,0,1,36,103.63c.54,1.06,1.42,2.25,2,3.31ZM51.55,87.7A10,10,0,0,0,44,84.18,9.83,9.83,0,0,0,35.8,85.3c3.9-.63,7.26-.52,7.59,3.07C44.77,85,48,85.94,51.55,87.7Z"/><path class="cls-2" d="M10.49,46c1.58,7.63,3.19,9.13,11.35,9.52a18.62,18.62,0,0,0,7.47-1,10.19,10.19,0,0,1,2.77-1.68,15.28,15.28,0,0,0,3.72-5.47c4.8-10.76,0-12-12.36-13.17C12,33.16,7.93,33.66,10.49,46Z"/><path class="cls-2" d="M51.13,47.44c2.77,6.2,6.2,8.37,14,8.13,8.16-.39,9.77-1.89,11.35-9.52C79,33.66,74.87,33.16,63.48,34.26,51.11,35.46,46.32,36.68,51.13,47.44Z"/></g></g></svg>