<svg xmlns="http://www.w3.org/2000/svg" viewBox="0 0 139.08 38.88"><defs><style>.a{isolation:isolate;}.b{fill:#edf0f1;}</style></defs><title>logo_txt</title><g class="a"><path class="b" d="M14.46,20.82a12.46,12.46,0,0,1-1.92,6.78A6.78,6.78,0,0,1,8.16,30a6.89,6.89,0,0,1,4.38,2.46,12.46,12.46,0,0,1,1.92,6.78v1c-.18,3.06-.78,5.1-1.92,6.72-1.38,1.68-3.48,2.52-6.24,2.52H.48V10.62H6.3c2.76,0,4.86.84,6.24,2.52,1.14,1.62,1.74,3.66,1.92,6.72ZM.72,29.88H6.3c5.28,0,7.8-3.06,7.86-9.54-.06-6.3-2.64-9.48-7.86-9.48H.72Zm0,.24V49.2H6.3c5.22,0,7.8-3.18,7.86-9.48-.06-6.54-2.58-9.6-7.86-9.6Z" transform="translate(-0.48 -10.56)"/><path class="b" d="M32.88,37.14H20.94l-2.82,12.3h-.3l9-38.82h.24l9,38.82h-.3Zm-11.82-.3H32.82L26.94,11.4Z" transform="translate(-0.48 -10.56)"/><path class="b" d="M55.2,49.44h-.3V39.06c0-5.34-3.06-8.58-8.34-8.58H40.38v19h-.3V10.62h6.48c5.58,0,8.34,2.94,8.52,9.42v1c-.06,6.06-2.76,8.82-6.6,9.36,4.26.72,6.66,3.72,6.72,8.52ZM40.38,30.24h6.18c5.58,0,8.22-3.06,8.28-9.78-.06-6.3-2.7-9.6-8.28-9.6H40.38Z" transform="translate(-0.48 -10.56)"/><path class="b" d="M75.12,37.14H63.18l-2.82,12.3h-.3l9-38.82h.24l9,38.82H78Zm-11.82-.3H75.06L69.18,11.4Z" transform="translate(-0.48 -10.56)"/><path class="b" d="M93.54,48.78l11-38.22h.24V49.38h-.3V11.7L93.66,49.44h-.24L82.62,11.7V49.38h-.3V10.56h.24Z" transform="translate(-0.48 -10.56)"/><path class="b" d="M123.42,20.82a12.45,12.45,0,0,1-1.92,6.78,6.78,6.78,0,0,1-4.38,2.4,6.89,6.89,0,0,1,4.38,2.46,12.45,12.45,0,0,1,1.92,6.78v1c-.18,3.06-.78,5.1-1.92,6.72-1.38,1.68-3.48,2.52-6.24,2.52h-5.82V10.62h5.82c2.76,0,4.86.84,6.24,2.52,1.14,1.62,1.74,3.66,1.92,6.72Zm-13.74,9.06h5.58c5.28,0,7.8-3.06,7.86-9.54-.06-6.3-2.64-9.48-7.86-9.48h-5.58Zm0,.24V49.2h5.58c5.22,0,7.8-3.18,7.86-9.48-.06-6.54-2.58-9.6-7.86-9.6Z" transform="translate(-0.48 -10.56)"/><path class="b" d="M139.56,10.62v.24H126.9v19h12.66v.24H126.9V49.2h12.66v.24h-12.9V10.62Z" transform="translate(-0.48 -10.56)"/></g></svg>